<?xml version="1.0" encoding="UTF-8"?><svg id="Layer_1" xmlns="http://www.w3.org/2000/svg" viewBox="0 0 311.53 311.52"><defs><style>.cls-1{fill:#ed1c24;font-size:27px;}.cls-1,.cls-2{font-family:Rockwell-Bold, Rockwell;font-weight:700;}.cls-3{font-family:Rockwell, Rockwell;font-size:23px;}.cls-3,.cls-4,.cls-2{fill:#fff;}.cls-4{stroke-width:0px;}.cls-2{font-size:26px;}</style></defs><path class="cls-4" d="m154.67,188.7c-18.17,0-32.95-14.78-32.95-32.95s14.78-32.95,32.95-32.95,32.95,14.78,32.95,32.95-14.78,32.95-32.95,32.95Zm0-62.89c-16.51,0-29.95,13.43-29.95,29.95s13.43,29.95,29.95,29.95,29.95-13.43,29.95-29.95-13.43-29.95-29.95-29.95Z"/><path class="cls-4" d="m155.77,234.29c-43.31,0-78.54-35.23-78.54-78.54s35.23-78.54,78.54-78.54,78.54,35.23,78.54,78.54-35.23,78.54-78.54,78.54Zm0-155.08c-42.2,0-76.54,34.34-76.54,76.54s34.33,76.54,76.54,76.54,76.54-34.34,76.54-76.54-34.34-76.54-76.54-76.54Z"/><text class="cls-1" transform="translate(73.36 199.3) rotate(-112.3)"><tspan x="0" y="0">T</tspan></text><text class="cls-1" transform="translate(66.71 183.13) rotate(-101.92)"><tspan x="0" y="0">h</tspan></text><text class="cls-1" transform="translate(63.38 167.34) rotate(-92.34)"><tspan x="0" y="0">e</tspan></text><text class="cls-1" transform="translate(62.99 152.39) rotate(-85.79)"><tspan x="0" y="0"> </tspan></text><text class="cls-1" transform="translate(62.96 146.2) rotate(-78.03)"><tspan x="0" y="0">R</tspan></text><text class="cls-1" transform="translate(66.99 127.74) rotate(-67.67)"><tspan x="0" y="0">a</tspan></text><text class="cls-1" transform="translate(72 113.7) rotate(-55.19)"><tspan x="0" y="0">m</tspan></text><text class="cls-1" transform="translate(87.13 92.83) rotate(-42.68)"><tspan x="0" y="0">e</tspan></text><text class="cls-1" transform="translate(97.9 82.74) rotate(-33.14)"><tspan x="0" y="0">n</tspan></text><text class="cls-1" transform="translate(111.69 74.06) rotate(-26.29)"><tspan x="0" y="0"> </tspan></text><text class="cls-1" transform="translate(117.1 70.95) rotate(-19.04)"><tspan x="0" y="0">P</tspan></text><text class="cls-1" transform="translate(133.58 65.53) rotate(-10.89)"><tspan x="0" y="0">l</tspan></text><text class="cls-1" transform="translate(142.37 63.6) rotate(-3.39)"><tspan x="0" y="0">a</tspan></text><text class="cls-1" transform="translate(157.39 62.67) rotate(5.73)"><tspan x="0" y="0">c</tspan></text><text class="cls-1" transform="translate(171.83 64.06) rotate(14.72)"><tspan x="0" y="0">e</tspan></text><text class="cls-2" transform="translate(186.24 68.08) rotate(21.15)"><tspan x="0" y="0"> </tspan></text><text class="cls-2" transform="translate(192.02 70.3) rotate(24.96)"><tspan x="0" y="0"> </tspan></text><text class="cls-2" transform="translate(197.66 72.91) rotate(28.78)"><tspan x="0" y="0"> </tspan></text><text class="cls-2" transform="translate(203.09 75.88) rotate(32.6)"><tspan x="0" y="0"> </tspan></text><text class="cls-2" transform="translate(208.31 79.21) rotate(36.43)"><tspan x="0" y="0"> </tspan></text><text class="cls-2" transform="translate(213.3 82.88) rotate(40.28)"><tspan x="0" y="0"> </tspan></text><text class="cls-2" transform="translate(218.04 86.88) rotate(44.14)"><tspan x="0" y="0"> </tspan></text><text class="cls-2" transform="translate(222.49 91.18) rotate(47.98)"><tspan x="0" y="0"> </tspan></text><text class="cls-2" transform="translate(226.64 95.78) rotate(51.84)"><tspan x="0" y="0"> </tspan></text><text class="cls-2" transform="translate(230.48 100.65) rotate(55.67)"><tspan x="0" y="0"> </tspan></text><text class="cls-2" transform="translate(233.98 105.76) rotate(59.47)"><tspan x="0" y="0"> </tspan></text><text class="cls-2" transform="translate(237.13 111.06) rotate(63.32)"><tspan x="0" y="0"> </tspan></text><text class="cls-3" transform="translate(240.02 116.45) rotate(68.69)"><tspan x="0" y="0">S</tspan></text><text class="cls-3" transform="translate(244.19 127.45) rotate(74.34)"><tspan x="0" y="0">t</tspan></text><text class="cls-3" transform="translate(246.09 133.65) rotate(80)"><tspan x="0" y="0">a</tspan></text><text class="cls-3" transform="translate(248.08 145.18) rotate(86.46)"><tspan x="0" y="0">r</tspan></text><text class="cls-3" transform="translate(248.61 154.71) rotate(91.55)"><tspan x="0" y="0">t</tspan></text><text class="cls-3" transform="translate(248.42 161.32) rotate(95.27)"><tspan x="0" y="0"> </tspan></text><text class="cls-3" transform="translate(248.12 166.66) rotate(100.77)"><tspan x="0" y="0">y</tspan></text><text class="cls-3" transform="translate(246.13 177.75) rotate(107.74)"><tspan x="0" y="0">o</tspan></text><text class="cls-3" transform="translate(242.33 189.74) rotate(115.38)"><tspan x="0" y="0">u</tspan></text><text class="cls-3" transform="translate(236.93 200.95) rotate(122.01)"><tspan x="0" y="0">r</tspan></text><text class="cls-3" transform="translate(231.99 208.73) rotate(126.53)"><tspan x="0" y="0"> </tspan></text><text class="cls-3" transform="translate(228.86 213.11) rotate(131.07)"><tspan x="0" y="0">r</tspan></text><text class="cls-3" transform="translate(223.33 219.65) rotate(137.2)"><tspan x="0" y="0">a</tspan></text><text class="cls-3" transform="translate(215.13 227.75) rotate(146.68)"><tspan x="0" y="0">m</tspan></text><text class="cls-3" transform="translate(199.02 238.08) rotate(156.29)"><tspan x="0" y="0">e</tspan></text><text class="cls-3" transform="translate(187.52 243.18) rotate(164.04)"><tspan x="0" y="0">n</tspan></text><text class="cls-3" transform="translate(175.23 246.52) rotate(169.66)"><tspan x="0" y="0"> </tspan></text><text class="cls-3" transform="translate(169.95 247.58) rotate(174.2)"><tspan x="0" y="0">r</tspan></text><text class="cls-3" transform="translate(160.34 248.49) rotate(179.29)"><tspan x="0" y="0">i</tspan></text><text class="cls-3" transform="translate(154.1 248.8) rotate(-174.49)"><tspan x="0" y="0">g</tspan></text><text class="cls-3" transform="translate(140.41 247.48) rotate(-166.41)"><tspan x="0" y="0">h</tspan></text><text class="cls-3" transform="translate(128.08 244.36) rotate(-160.52)"><tspan x="0" y="0">t</tspan></text><path class="cls-4" d="m155.77,241.09c-47.05,0-85.33-38.28-85.33-85.34s38.28-85.34,85.33-85.34,85.34,38.28,85.34,85.34-38.28,85.34-85.34,85.34Zm0-164.67c-43.75,0-79.33,35.59-79.33,79.34s35.59,79.34,79.33,79.34,79.34-35.59,79.34-79.34-35.59-79.34-79.34-79.34Z"/><polygon class="cls-4" points="203.75 47.91 196.98 45.19 107.64 266.38 203.75 47.91"/><path class="cls-4" d="m109.01,266.98l-2.76-1.17L196.15,43.24l9.6,3.85-96.74,219.89ZM197.81,47.14l-52.06,128.89,56-127.3-3.95-1.58Z"/><line class="cls-4" x1="205.12" y1="49.41" x2="205.1" y2="49.43"/><path class="cls-4" d="m205.1,49.55s-.04,0-.06-.01c-.06-.03-.08-.11-.05-.17.03-.06.11-.09.17-.06.06.03.09.1.06.16v.02s-.08.07-.12.07Z"/><polygon class="cls-4" points="262.31 99.58 258.56 93.31 53.51 215.21 262.31 99.58"/><path class="cls-4" d="m54.23,216.52l-1.49-2.6,206.34-122.67,5.31,8.88-1.36.75L54.23,216.52Zm203.81-121.16l-119.49,71.03,121.67-67.38-2.18-3.65Z"/></svg>